<mxfile host="app.diagrams.net" agent="Mozilla/5.0 (Windows NT 10.0; Win64; x64) AppleWebKit/537.36 (KHTML, like Gecko) Chrome/141.0.0.0 Safari/537.36" version="28.2.5">
  <diagram name="PÃ¡gina-1" id="IyZNLSSHdIaYoCJahnt7">
    <mxGraphModel dx="1554" dy="587" grid="0" gridSize="10" guides="1" tooltips="1" connect="1" arrows="1" fold="1" page="0" pageScale="1" pageWidth="827" pageHeight="1169" math="0" shadow="0">
      <root>
        <mxCell id="0" />
        <mxCell id="1" parent="0" />
        <mxCell id="BCM5EcRZN73k4XNoGWlD-11" value="" style="edgeStyle=orthogonalEdgeStyle;rounded=0;orthogonalLoop=1;jettySize=auto;html=1;" parent="1" source="6Ox-xQFDand0ZYWsCLzr-2" target="6Ox-xQFDand0ZYWsCLzr-3" edge="1">
          <mxGeometry relative="1" as="geometry" />
        </mxCell>
        <mxCell id="6Ox-xQFDand0ZYWsCLzr-2" value="" style="sketch=0;points=[[0,0,0],[0.25,0,0],[0.5,0,0],[0.75,0,0],[1,0,0],[0,1,0],[0.25,1,0],[0.5,1,0],[0.75,1,0],[1,1,0],[0,0.25,0],[0,0.5,0],[0,0.75,0],[1,0.25,0],[1,0.5,0],[1,0.75,0]];outlineConnect=0;fontColor=#232F3E;fillColor=#7AA116;strokeColor=#ffffff;dashed=0;verticalLabelPosition=bottom;verticalAlign=top;align=center;html=1;fontSize=12;fontStyle=0;aspect=fixed;shape=mxgraph.aws4.resourceIcon;resIcon=mxgraph.aws4.s3;" parent="1" vertex="1">
          <mxGeometry x="360" y="305" width="80" height="80" as="geometry" />
        </mxCell>
        <mxCell id="6Ox-xQFDand0ZYWsCLzr-3" value="" style="sketch=0;points=[[0,0,0],[0.25,0,0],[0.5,0,0],[0.75,0,0],[1,0,0],[0,1,0],[0.25,1,0],[0.5,1,0],[0.75,1,0],[1,1,0],[0,0.25,0],[0,0.5,0],[0,0.75,0],[1,0.25,0],[1,0.5,0],[1,0.75,0]];outlineConnect=0;fontColor=#232F3E;fillColor=#ED7100;strokeColor=#ffffff;dashed=0;verticalLabelPosition=bottom;verticalAlign=top;align=center;html=1;fontSize=12;fontStyle=0;aspect=fixed;shape=mxgraph.aws4.resourceIcon;resIcon=mxgraph.aws4.lambda;" parent="1" vertex="1">
          <mxGeometry x="360" y="465" width="80" height="80" as="geometry" />
        </mxCell>
        <mxCell id="6Ox-xQFDand0ZYWsCLzr-4" value="" style="sketch=0;points=[[0,0,0],[0.25,0,0],[0.5,0,0],[0.75,0,0],[1,0,0],[0,1,0],[0.25,1,0],[0.5,1,0],[0.75,1,0],[1,1,0],[0,0.25,0],[0,0.5,0],[0,0.75,0],[1,0.25,0],[1,0.5,0],[1,0.75,0]];outlineConnect=0;fontColor=#232F3E;fillColor=#8C4FFF;strokeColor=#ffffff;dashed=0;verticalLabelPosition=bottom;verticalAlign=top;align=center;html=1;fontSize=12;fontStyle=0;aspect=fixed;shape=mxgraph.aws4.resourceIcon;resIcon=mxgraph.aws4.glue;" parent="1" vertex="1">
          <mxGeometry x="520" y="465" width="80" height="80" as="geometry" />
        </mxCell>
        <mxCell id="BCM5EcRZN73k4XNoGWlD-21" style="edgeStyle=orthogonalEdgeStyle;rounded=0;orthogonalLoop=1;jettySize=auto;html=1;" parent="1" source="6Ox-xQFDand0ZYWsCLzr-5" edge="1">
          <mxGeometry relative="1" as="geometry">
            <mxPoint x="840" y="345" as="targetPoint" />
          </mxGeometry>
        </mxCell>
        <mxCell id="6Ox-xQFDand0ZYWsCLzr-5" value="" style="sketch=0;points=[[0,0,0],[0.25,0,0],[0.5,0,0],[0.75,0,0],[1,0,0],[0,1,0],[0.25,1,0],[0.5,1,0],[0.75,1,0],[1,1,0],[0,0.25,0],[0,0.5,0],[0,0.75,0],[1,0.25,0],[1,0.5,0],[1,0.75,0]];outlineConnect=0;fontColor=#232F3E;fillColor=#7AA116;strokeColor=#ffffff;dashed=0;verticalLabelPosition=bottom;verticalAlign=top;align=center;html=1;fontSize=12;fontStyle=0;aspect=fixed;shape=mxgraph.aws4.resourceIcon;resIcon=mxgraph.aws4.s3;" parent="1" vertex="1">
          <mxGeometry x="680" y="305" width="80" height="80" as="geometry" />
        </mxCell>
        <mxCell id="6Ox-xQFDand0ZYWsCLzr-8" style="edgeStyle=orthogonalEdgeStyle;rounded=0;orthogonalLoop=1;jettySize=auto;html=1;entryX=0;entryY=0.5;entryDx=0;entryDy=0;entryPerimeter=0;" parent="1" source="6Ox-xQFDand0ZYWsCLzr-3" target="6Ox-xQFDand0ZYWsCLzr-4" edge="1">
          <mxGeometry relative="1" as="geometry" />
        </mxCell>
        <mxCell id="BCM5EcRZN73k4XNoGWlD-1" value="&lt;div style=&quot;text-align: start;&quot;&gt;&lt;span style=&quot;background-color: transparent;&quot;&gt;&lt;font style=&quot;color: light-dark(rgb(255, 255, 255), rgb(255, 255, 255));&quot;&gt;&lt;span style=&quot;font-size: 35px;&quot;&gt;[B]&lt;/span&gt;&lt;font style=&quot;font-size: 18px;&quot;&gt;&lt;sup style=&quot;&quot;&gt;3&lt;/sup&gt;&lt;/font&gt;&lt;/font&gt;&lt;/span&gt;&lt;/div&gt;" style="whiteSpace=wrap;html=1;aspect=fixed;strokeColor=light-dark(#08377b, #ededed);fillColor=light-dark(#08377b, #ededed);" parent="1" vertex="1">
          <mxGeometry x="40" y="305" width="80" height="80" as="geometry" />
        </mxCell>
        <mxCell id="BCM5EcRZN73k4XNoGWlD-8" value="" style="edgeStyle=orthogonalEdgeStyle;rounded=0;orthogonalLoop=1;jettySize=auto;html=1;dashed=1;endArrow=open;endFill=0;" parent="1" source="BCM5EcRZN73k4XNoGWlD-6" target="BCM5EcRZN73k4XNoGWlD-1" edge="1">
          <mxGeometry relative="1" as="geometry" />
        </mxCell>
        <mxCell id="BCM5EcRZN73k4XNoGWlD-10" value="" style="edgeStyle=orthogonalEdgeStyle;rounded=0;orthogonalLoop=1;jettySize=auto;html=1;" parent="1" source="BCM5EcRZN73k4XNoGWlD-6" target="6Ox-xQFDand0ZYWsCLzr-2" edge="1">
          <mxGeometry relative="1" as="geometry" />
        </mxCell>
        <mxCell id="BCM5EcRZN73k4XNoGWlD-6" value="" style="sketch=0;points=[[0,0,0],[0.25,0,0],[0.5,0,0],[0.75,0,0],[1,0,0],[0,1,0],[0.25,1,0],[0.5,1,0],[0.75,1,0],[1,1,0],[0,0.25,0],[0,0.5,0],[0,0.75,0],[1,0.25,0],[1,0.5,0],[1,0.75,0]];outlineConnect=0;fontColor=#232F3E;fillColor=#8C4FFF;strokeColor=#ffffff;dashed=0;verticalLabelPosition=bottom;verticalAlign=top;align=center;html=1;fontSize=12;fontStyle=0;aspect=fixed;shape=mxgraph.aws4.resourceIcon;resIcon=mxgraph.aws4.glue;" parent="1" vertex="1">
          <mxGeometry x="200" y="305" width="80" height="80" as="geometry" />
        </mxCell>
        <mxCell id="BCM5EcRZN73k4XNoGWlD-9" value="" style="edgeStyle=orthogonalEdgeStyle;rounded=0;orthogonalLoop=1;jettySize=auto;html=1;" parent="1" source="BCM5EcRZN73k4XNoGWlD-7" target="BCM5EcRZN73k4XNoGWlD-6" edge="1">
          <mxGeometry relative="1" as="geometry" />
        </mxCell>
        <mxCell id="BCM5EcRZN73k4XNoGWlD-7" value="" style="sketch=0;points=[[0,0,0],[0.25,0,0],[0.5,0,0],[0.75,0,0],[1,0,0],[0,1,0],[0.25,1,0],[0.5,1,0],[0.75,1,0],[1,1,0],[0,0.25,0],[0,0.5,0],[0,0.75,0],[1,0.25,0],[1,0.5,0],[1,0.75,0]];outlineConnect=0;fontColor=#232F3E;fillColor=#E7157B;strokeColor=#ffffff;dashed=0;verticalLabelPosition=bottom;verticalAlign=top;align=center;html=1;fontSize=12;fontStyle=0;aspect=fixed;shape=mxgraph.aws4.resourceIcon;resIcon=mxgraph.aws4.eventbridge;" parent="1" vertex="1">
          <mxGeometry x="200" y="185" width="80" height="80" as="geometry" />
        </mxCell>
        <mxCell id="BCM5EcRZN73k4XNoGWlD-14" value="Site B3" style="text;html=1;align=center;verticalAlign=middle;whiteSpace=wrap;rounded=0;" parent="1" vertex="1">
          <mxGeometry x="40" y="385" width="80" height="30" as="geometry" />
        </mxCell>
        <mxCell id="BCM5EcRZN73k4XNoGWlD-15" value="Glue" style="text;html=1;align=center;verticalAlign=middle;whiteSpace=wrap;rounded=0;" parent="1" vertex="1">
          <mxGeometry x="200" y="385" width="80" height="30" as="geometry" />
        </mxCell>
        <mxCell id="BCM5EcRZN73k4XNoGWlD-16" value="EventBrigde" style="text;html=1;align=center;verticalAlign=middle;whiteSpace=wrap;rounded=0;" parent="1" vertex="1">
          <mxGeometry x="200" y="155" width="80" height="30" as="geometry" />
        </mxCell>
        <mxCell id="BCM5EcRZN73k4XNoGWlD-20" value="&lt;div style=&quot;text-align: start;&quot;&gt;&lt;br&gt;&lt;/div&gt;" style="whiteSpace=wrap;html=1;aspect=fixed;strokeColor=light-dark(#ffffff, #ededed);fillColor=light-dark(#f6f6f6, #ededed);" parent="1" vertex="1">
          <mxGeometry x="841" y="305" width="80" height="80" as="geometry" />
        </mxCell>
        <mxCell id="BCM5EcRZN73k4XNoGWlD-19" value="" style="sketch=0;outlineConnect=0;fontColor=#232F3E;gradientColor=none;fillColor=#8C4FFF;strokeColor=none;dashed=0;verticalLabelPosition=bottom;verticalAlign=top;align=center;html=1;fontSize=12;fontStyle=0;aspect=fixed;pointerEvents=1;shape=mxgraph.aws4.glue_data_catalog;" parent="1" vertex="1">
          <mxGeometry x="849.6099999999999" y="311" width="62.77" height="68" as="geometry" />
        </mxCell>
        <mxCell id="BCM5EcRZN73k4XNoGWlD-22" value="S3" style="text;html=1;align=center;verticalAlign=middle;whiteSpace=wrap;rounded=0;" parent="1" vertex="1">
          <mxGeometry x="360" y="275" width="80" height="30" as="geometry" />
        </mxCell>
        <mxCell id="BCM5EcRZN73k4XNoGWlD-23" value="Lambda" style="text;html=1;align=center;verticalAlign=middle;whiteSpace=wrap;rounded=0;" parent="1" vertex="1">
          <mxGeometry x="360" y="545" width="80" height="30" as="geometry" />
        </mxCell>
        <mxCell id="BCM5EcRZN73k4XNoGWlD-24" value="Glue" style="text;html=1;align=center;verticalAlign=middle;whiteSpace=wrap;rounded=0;" parent="1" vertex="1">
          <mxGeometry x="520" y="545" width="80" height="30" as="geometry" />
        </mxCell>
        <mxCell id="BCM5EcRZN73k4XNoGWlD-26" value="Glue Catalog" style="text;html=1;align=center;verticalAlign=middle;whiteSpace=wrap;rounded=0;" parent="1" vertex="1">
          <mxGeometry x="841" y="385" width="80" height="30" as="geometry" />
        </mxCell>
        <mxCell id="BCM5EcRZN73k4XNoGWlD-29" style="edgeStyle=orthogonalEdgeStyle;rounded=0;orthogonalLoop=1;jettySize=auto;html=1;entryX=0;entryY=0.5;entryDx=0;entryDy=0;entryPerimeter=0;" parent="1" source="6Ox-xQFDand0ZYWsCLzr-4" target="6Ox-xQFDand0ZYWsCLzr-5" edge="1">
          <mxGeometry relative="1" as="geometry">
            <Array as="points">
              <mxPoint x="560" y="345" />
            </Array>
          </mxGeometry>
        </mxCell>
        <mxCell id="BCM5EcRZN73k4XNoGWlD-30" style="edgeStyle=orthogonalEdgeStyle;rounded=0;orthogonalLoop=1;jettySize=auto;html=1;entryX=1;entryY=0.5;entryDx=0;entryDy=0;entryPerimeter=0;dashed=1;endArrow=open;endFill=0;" parent="1" source="6Ox-xQFDand0ZYWsCLzr-4" target="6Ox-xQFDand0ZYWsCLzr-2" edge="1">
          <mxGeometry relative="1" as="geometry">
            <Array as="points">
              <mxPoint x="560" y="345" />
            </Array>
          </mxGeometry>
        </mxCell>
        <mxCell id="BCM5EcRZN73k4XNoGWlD-31" value="AWS Cloud" style="points=[[0,0],[0.25,0],[0.5,0],[0.75,0],[1,0],[1,0.25],[1,0.5],[1,0.75],[1,1],[0.75,1],[0.5,1],[0.25,1],[0,1],[0,0.75],[0,0.5],[0,0.25]];outlineConnect=0;gradientColor=none;html=1;whiteSpace=wrap;fontSize=12;fontStyle=0;container=1;pointerEvents=0;collapsible=0;recursiveResize=0;shape=mxgraph.aws4.group;grIcon=mxgraph.aws4.group_aws_cloud_alt;strokeColor=#232F3E;fillColor=none;verticalAlign=top;align=left;spacingLeft=30;fontColor=#232F3E;dashed=0;" parent="1" vertex="1">
          <mxGeometry x="160" y="115" width="1154" height="516" as="geometry" />
        </mxCell>
        <mxCell id="BCM5EcRZN73k4XNoGWlD-25" value="S3" style="text;html=1;align=center;verticalAlign=middle;whiteSpace=wrap;rounded=0;" parent="BCM5EcRZN73k4XNoGWlD-31" vertex="1">
          <mxGeometry x="520" y="270" width="80" height="30" as="geometry" />
        </mxCell>
        <mxCell id="rj7eaEpd3Vt57LSMFbS1-1" value="" style="rounded=0;whiteSpace=wrap;html=1;" vertex="1" parent="BCM5EcRZN73k4XNoGWlD-31">
          <mxGeometry x="795" y="143" width="325" height="184" as="geometry" />
        </mxCell>
        <mxCell id="1fV3bSH4Gd4kjfPl44I1-15" style="edgeStyle=orthogonalEdgeStyle;rounded=0;orthogonalLoop=1;jettySize=auto;html=1;" parent="BCM5EcRZN73k4XNoGWlD-31" source="1fV3bSH4Gd4kjfPl44I1-6" target="1fV3bSH4Gd4kjfPl44I1-13" edge="1">
          <mxGeometry relative="1" as="geometry" />
        </mxCell>
        <mxCell id="1fV3bSH4Gd4kjfPl44I1-6" value="" style="sketch=0;points=[[0,0,0],[0.25,0,0],[0.5,0,0],[0.75,0,0],[1,0,0],[0,1,0],[0.25,1,0],[0.5,1,0],[0.75,1,0],[1,1,0],[0,0.25,0],[0,0.5,0],[0,0.75,0],[1,0.25,0],[1,0.5,0],[1,0.75,0]];outlineConnect=0;fontColor=#232F3E;fillColor=#8C4FFF;strokeColor=#ffffff;dashed=0;verticalLabelPosition=bottom;verticalAlign=top;align=center;html=1;fontSize=12;fontStyle=0;aspect=fixed;shape=mxgraph.aws4.resourceIcon;resIcon=mxgraph.aws4.sagemaker_2;" parent="BCM5EcRZN73k4XNoGWlD-31" vertex="1">
          <mxGeometry x="841" y="192" width="78" height="78" as="geometry" />
        </mxCell>
        <mxCell id="1fV3bSH4Gd4kjfPl44I1-3" value="Sagemaker" style="text;html=1;align=center;verticalAlign=middle;whiteSpace=wrap;rounded=0;" parent="BCM5EcRZN73k4XNoGWlD-31" vertex="1">
          <mxGeometry x="841" y="270" width="80" height="30" as="geometry" />
        </mxCell>
        <mxCell id="1fV3bSH4Gd4kjfPl44I1-13" value="" style="sketch=0;points=[[0,0,0],[0.25,0,0],[0.5,0,0],[0.75,0,0],[1,0,0],[0,1,0],[0.25,1,0],[0.5,1,0],[0.75,1,0],[1,1,0],[0,0.25,0],[0,0.5,0],[0,0.75,0],[1,0.25,0],[1,0.5,0],[1,0.75,0]];outlineConnect=0;fontColor=#232F3E;fillColor=#8C4FFF;strokeColor=#ffffff;dashed=0;verticalLabelPosition=bottom;verticalAlign=top;align=center;html=1;fontSize=12;fontStyle=0;aspect=fixed;shape=mxgraph.aws4.resourceIcon;resIcon=mxgraph.aws4.quicksight;" parent="BCM5EcRZN73k4XNoGWlD-31" vertex="1">
          <mxGeometry x="1008" y="192" width="78" height="78" as="geometry" />
        </mxCell>
        <mxCell id="1fV3bSH4Gd4kjfPl44I1-14" value="Quicksight" style="text;html=1;align=center;verticalAlign=middle;whiteSpace=wrap;rounded=0;" parent="BCM5EcRZN73k4XNoGWlD-31" vertex="1">
          <mxGeometry x="1007" y="270" width="80" height="30" as="geometry" />
        </mxCell>
        <mxCell id="1fV3bSH4Gd4kjfPl44I1-12" style="edgeStyle=orthogonalEdgeStyle;rounded=0;orthogonalLoop=1;jettySize=auto;html=1;entryX=0;entryY=0.5;entryDx=0;entryDy=0;entryPerimeter=0;" parent="1" source="BCM5EcRZN73k4XNoGWlD-19" target="1fV3bSH4Gd4kjfPl44I1-6" edge="1">
          <mxGeometry relative="1" as="geometry" />
        </mxCell>
      </root>
    </mxGraphModel>
  </diagram>
</mxfile>
